<?xml version="1.0" encoding="utf-8"?>
<!-- Generator: Adobe Illustrator 16.0.0, SVG Export Plug-In . SVG Version: 6.00 Build 0)  -->
<!DOCTYPE svg PUBLIC "-//W3C//DTD SVG 1.1//EN" "http://www.w3.org/Graphics/SVG/1.1/DTD/svg11.dtd">
<svg version="1.1" id="Calque_1" xmlns="http://www.w3.org/2000/svg" xmlns:xlink="http://www.w3.org/1999/xlink" x="0px" y="0px"
	 width="500px" height="500px" viewBox="0 0 500 500" enable-background="new 0 0 500 500" xml:space="preserve">
<path fill="#F39C12" stroke="#F39C12" stroke-miterlimit="10" d="M500,250.002C500,388.068,388.071,500,250,500S0,388.068,0,250.002
	C0,111.927,111.929,0,250,0S500,111.927,500,250.002z"/>
<g>
	<path fill="#FFFFFF" d="M355.267,191.759c0,5.389-0.557,11.326-1.662,17.813c-1.113,6.494-3.325,13.538-6.65,21.138
		c-3.324,7.6-8.156,15.675-14.487,24.225c-6.338,8.551-14.888,17.42-25.649,26.601c-5.389,4.75-9.976,8.869-13.775,12.35
		c-3.8,3.488-6.97,7.207-9.5,11.163c-2.538,3.963-4.438,8.394-5.7,13.3c-1.27,4.913-1.9,10.851-1.9,17.813h-66.5
		c0.312-12.351,1.5-23.275,3.563-32.775c2.056-9.5,5.225-18.206,9.5-26.125c4.275-7.911,9.738-15.512,16.388-22.8
		c6.65-7.281,14.561-15.037,23.75-23.275c6.33-5.381,11.236-10.212,14.725-14.488c3.48-4.275,6.012-7.993,7.6-11.162
		c1.581-3.162,2.531-5.856,2.85-8.075c0.313-2.212,0.476-4.112,0.476-5.7v-9.5l-2.851-10.45l-5.225-9.5l-8.074-8.075l-9.5-5.225
		l-10.451-2.85h-10.924l-10.925,2.85l-9.5,5.225l-7.6,8.075l-5.7,9.5l-2.85,10.45v12.35h-65.55v-13.3h57.475l-55.575-14.725
		l3.325-12.825l55.575,14.725l-49.875-28.5l6.65-11.4l49.875,28.5l-40.85-40.375l9.5-9.5l40.85,40.85l-28.975-49.875l11.4-6.65
		l28.975,49.875l-15.2-55.575l12.825-3.325l14.725,55.575V80.609h13.301v57.475l14.725-55.575l12.824,3.325l-14.725,55.575
		l28.5-49.875l11.4,6.65l-28.5,49.875l40.375-40.85l9.5,9.5l-40.85,40.375l49.874-28.5l6.65,11.4l-49.875,28.5l55.575-14.725
		l3.325,12.825l-55.575,14.725h58.899V191.759z M210.392,389.834c0-9.181,3.162-16.937,9.5-23.275c6.331-6.33,14.086-9.5,23.275-9.5
		c9.181,0,16.937,3.17,23.274,9.5c6.332,6.339,9.5,14.095,9.5,23.275c0,9.188-3.168,16.944-9.5,23.275
		c-6.338,6.33-14.094,9.5-23.274,9.5c-9.188,0-16.944-3.17-23.275-9.5C213.554,406.778,210.392,399.022,210.392,389.834z"/>
</g>
</svg>
